<svg xmlns="http://www.w3.org/2000/svg" viewBox="0 0 100 100" width="100" height="100">
  <g fill="#23284C">
    <rect x="32" y="8" width="4" height="9" rx="2" transform="rotate(315 34 34)"></rect>
    <rect x="32" y="8" width="4" height="9" rx="2" transform="rotate(0 34 34)"></rect>
    <rect x="32" y="8" width="4" height="9" rx="2" transform="rotate(45 34 34)"></rect>
    <rect x="32" y="8" width="4" height="9" rx="2" transform="rotate(90 34 34)"></rect>
    <rect x="32" y="8" width="4" height="9" rx="2" transform="rotate(135 34 34)"></rect>
  </g>
  <circle cx="34" cy="34" r="11" fill="#F2B244"></circle>
  <g transform="translate(18 20) scale(0.85)" fill="#23284C">
    <circle cx="30" cy="58" r="14"></circle>
    <circle cx="50" cy="44" r="22"></circle>
    <circle cx="70" cy="54" r="17"></circle>
    <rect x="28" y="56" width="46" height="18" rx="9"></rect>
  </g>
</svg>