<svg xmlns="http://www.w3.org/2000/svg" viewBox="0 0 100 100" width="100" height="100">
  <g transform="translate(0 -6) scale(1)" fill="#23284C">
    <circle cx="30" cy="58" r="14"></circle>
    <circle cx="50" cy="44" r="22"></circle>
    <circle cx="70" cy="54" r="17"></circle>
    <rect x="28" y="56" width="46" height="18" rx="9"></rect>
  </g>
  <g transform="translate(24 74) rotate(20)"><rect x="-2" y="0" width="4" height="12" rx="2" fill="#5278B8"></rect></g>
  <g transform="translate(38 78) rotate(20)"><rect x="-2" y="0" width="4" height="12" rx="2" fill="#5278B8"></rect></g>
  <g transform="translate(52 74) rotate(20)"><rect x="-2" y="0" width="4" height="12" rx="2" fill="#5278B8"></rect></g>
  <g transform="translate(66 78) rotate(20)"><rect x="-2" y="0" width="4" height="12" rx="2" fill="#5278B8"></rect></g>
  <g transform="translate(78 74) rotate(20)"><rect x="-2" y="0" width="4" height="12" rx="2" fill="#5278B8"></rect></g>
  <g transform="translate(32 92) rotate(20)"><rect x="-1.5" y="0" width="3" height="8" rx="1.5" fill="#5278B8"></rect></g>
  <g transform="translate(46 92) rotate(20)"><rect x="-1.5" y="0" width="3" height="8" rx="1.5" fill="#5278B8"></rect></g>
  <g transform="translate(60 92) rotate(20)"><rect x="-1.5" y="0" width="3" height="8" rx="1.5" fill="#5278B8"></rect></g>
</svg>